<?xml version="1.0" encoding="UTF-8" standalone="no"?>
<!-- Created with Inkscape (http://www.inkscape.org/) -->

<svg
   xmlns:dc="http://purl.org/dc/elements/1.1/"
   xmlns:cc="http://creativecommons.org/ns#"
   xmlns:rdf="http://www.w3.org/1999/02/22-rdf-syntax-ns#"
   xmlns:svg="http://www.w3.org/2000/svg"
   xmlns="http://www.w3.org/2000/svg"
   xmlns:sodipodi="http://sodipodi.sourceforge.net/DTD/sodipodi-0.dtd"
   xmlns:inkscape="http://www.inkscape.org/namespaces/inkscape"
   width="126.91567"
   height="205.36722"
   id="svg2"
   version="1.1"
   inkscape:version="0.91 r13725"
   sodipodi:docname="coffee-cup-white.svg">
  <title
     id="title4121">caf  </title>
  <defs
     id="defs4" />
  <sodipodi:namedview
     id="base"
     pagecolor="#ffffff"
     bordercolor="#666666"
     borderopacity="1.0"
     inkscape:pageopacity="0.0"
     inkscape:pageshadow="2"
     inkscape:zoom="2.8615726"
     inkscape:cx="104.40771"
     inkscape:cy="99.683185"
     inkscape:document-units="px"
     inkscape:current-layer="layer1"
     showgrid="false"
     showguides="true"
     inkscape:guide-bbox="true"
     inkscape:window-width="1280"
     inkscape:window-height="756"
     inkscape:window-x="23"
     inkscape:window-y="0"
     inkscape:window-maximized="0"
     fit-margin-top="0"
     fit-margin-left="0"
     fit-margin-right="0"
     fit-margin-bottom="0" />
  <metadata
     id="metadata7">
    <rdf:RDF>
      <cc:Work
         rdf:about="">
        <dc:format>image/svg+xml</dc:format>
        <dc:type
           rdf:resource="http://purl.org/dc/dcmitype/StillImage" />
        <dc:title>caf  </dc:title>
        <dc:date>2011-03-29</dc:date>
        <cc:license
           rdf:resource="http://creativecommons.org/licenses/publicdomain/" />
        <dc:creator>
          <cc:Agent>
            <dc:title>lmproulx</dc:title>
          </cc:Agent>
        </dc:creator>
      </cc:Work>
      <cc:License
         rdf:about="http://creativecommons.org/licenses/publicdomain/">
        <cc:permits
           rdf:resource="http://creativecommons.org/ns#Reproduction" />
        <cc:permits
           rdf:resource="http://creativecommons.org/ns#Distribution" />
        <cc:permits
           rdf:resource="http://creativecommons.org/ns#DerivativeWorks" />
      </cc:License>
    </rdf:RDF>
  </metadata>
  <g
     inkscape:label="Calque 1"
     inkscape:groupmode="layer"
     id="layer1"
     transform="translate(-246.62183,-111.67735)">
    <path
       sodipodi:type="arc"
       style="fill:#ffffff;fill-opacity:1;stroke:#000000;stroke-width:2.69407296;stroke-linecap:round;stroke-linejoin:round;stroke-miterlimit:4;stroke-opacity:1;stroke-dasharray:none;stroke-dashoffset:0"
       id="path4083"
       sodipodi:cx="-234.50194"
       sodipodi:cy="64.4394"
       sodipodi:rx="74.872589"
       sodipodi:ry="21.745173"
       d="M -159.62935,64.4394 A 74.872589,21.745173 0 0 1 -234.50194,86.184572 74.872589,21.745173 0 0 1 -309.37453,64.4394 74.872589,21.745173 0 0 1 -234.50194,42.694227 74.872589,21.745173 0 0 1 -159.62935,64.4394 Z"
       transform="matrix(0.74120188,0,0,0.74354062,483.99988,80.936595)" />
    <path
       sodipodi:type="arc"
       style="fill:#ffffff;stroke:#000000;stroke-width:1.27232683;stroke-linecap:round;stroke-linejoin:round;stroke-miterlimit:4;stroke-opacity:1;stroke-dasharray:none;stroke-dashoffset:0"
       id="path4085"
       sodipodi:cx="-235.49034"
       sodipodi:cy="70.864113"
       sodipodi:rx="58.563705"
       sodipodi:ry="14.826255"
       d="m -176.92664,70.864113 a 58.563705,14.826255 0 0 1 -58.5637,14.826255 58.563705,14.826255 0 0 1 -58.56371,-14.826255 58.563705,14.826255 0 0 1 58.56371,-14.826255 58.563705,14.826255 0 0 1 58.5637,14.826255 z"
       transform="matrix(0.7912408,0,0,0.78071763,497.98142,73.341314)" />
    <path
       style="fill:none;stroke:#000000;stroke-width:1;stroke-linecap:round;stroke-linejoin:round;stroke-miterlimit:4;stroke-opacity:1;stroke-dasharray:none;stroke-dashoffset:0"
       d="M 278.86725,121.50063 311.1916,140.2413"
       id="path4087"
       inkscape:connector-curvature="0"
       sodipodi:nodetypes="cc" />
    <path
       style="fill:none;stroke:#000000;stroke-width:1;stroke-linecap:round;stroke-linejoin:round;stroke-miterlimit:4;stroke-opacity:1;stroke-dasharray:none;stroke-dashoffset:0"
       d="m 278.5054,121.31648 -7.33063,12.93782"
       id="path4089"
       inkscape:connector-curvature="0"
       sodipodi:nodetypes="cc" />
    <path
       style="fill:none;stroke:#000000;stroke-width:1;stroke-linecap:round;stroke-linejoin:round;stroke-miterlimit:4;stroke-opacity:1;stroke-dashoffset:0"
       d="m 262.71542,130.19852 6.73997,4.67368 c 0.57907,0.40154 -0.19845,1.09501 -0.43449,1.27292 l -0.40353,0.30413 c -0.56277,0.42415 -1.41688,0.5031 -2.00081,0.10867 l -6.96717,-4.70617 c -0.58392,-0.39444 0.0336,-0.97168 0.56432,-1.4354 l 0.27371,-0.23914 c 0.53073,-0.46372 1.64891,-0.38025 2.228,0.0213 z"
       id="rect4091"
       inkscape:connector-curvature="0"
       sodipodi:nodetypes="sssssssss" />
    <path
       style="fill:#ffffff;fill-opacity:1;stroke:#000000;stroke-width:2;stroke-linecap:round;stroke-linejoin:round;stroke-miterlimit:4;stroke-opacity:1;stroke-dasharray:none;stroke-dashoffset:0"
       d="m 251.01065,159.34943 21.56903,142.77978 c 18.45871,20.3404 62.92523,16.86141 78.02366,-0.73493 L 368.2293,159.71689 c -35.01989,9.98161 -73.53688,16.68409 -117.21865,-0.36746 z"
       id="path4097"
       inkscape:connector-curvature="0"
       sodipodi:nodetypes="ccccc" />
    <path
       style="fill:#ffffff;stroke:#000000;stroke-width:2;stroke-linecap:round;stroke-linejoin:round;stroke-miterlimit:4;stroke-opacity:1;stroke-dasharray:none;stroke-dashoffset:0"
       d="m 247.6247,143.61046 1.24317,13.48034 c 30.88694,26.41395 115.20767,17.0443 122.5827,-1.15606 l 0.82585,-11.95587 c -33.45792,20.09681 -74.12297,15.24654 -124.65172,-0.36841 z"
       id="path4095"
       inkscape:connector-curvature="0"
       sodipodi:nodetypes="ccccc" />
    <path
       style="fill:#ffffff;stroke:#000000;stroke-width:2;stroke-linecap:round;stroke-linejoin:round;stroke-miterlimit:4;stroke-opacity:1;stroke-dasharray:none;stroke-dashoffset:0"
       d="m 254.71408,128.53612 -1.48841,6.92814 -4.39571,3.30718 -1.15253,5.05499 c 12.07803,16.1213 99.25039,25.15051 124.8575,1.88208 l -0.62538,-5.46721 -4.3957,-4.40957 -2.01604,-7.90056 c -1.83153,21.42061 -99.79449,23.76879 -110.78373,0.60495 z"
       id="path4093"
       inkscape:connector-curvature="0"
       sodipodi:nodetypes="ccccccccc" />
    <path
       style="fill:#ffffff"
       d="M 56.846452,202.88179 C 44.552317,201.39878 34.453061,197.2631 28.647185,191.33408 L 27.006742,189.65884 16.503513,120.10881 C 10.726737,81.856298 6.0002846,50.3672 6.0002846,50.133039 c 0,-0.24946 0.706689,0.0091 1.7066978,0.624393 6.8448356,4.21167 18.0662106,8.067204 28.9063946,9.9319 27.677971,4.761085 62.303201,1.503305 79.801773,-7.508298 1.81826,-0.936387 3.3629,-1.645549 3.43253,-1.575915 0.0696,0.06963 -3.7194,31.055359 -8.42008,68.857161 l -8.54669,68.73057 -1.1761,1.22043 c -5.867612,6.08883 -17.650413,10.90442 -30.181114,12.33492 -2.92927,0.3344 -12.30508,0.41974 -14.677244,0.13359 z"
       id="path3350"
       inkscape:connector-curvature="0"
       transform="translate(246.62183,111.67735)" />
    <path
       style="fill:#ffffff"
       d="M 50.730934,60.139147 C 31.18006,58.553279 15.197224,53.646266 5.0868389,46.125604 L 3.2997479,44.796267 3.0649484,41.744582 C 2.9358087,40.066155 2.7337515,37.922278 2.6159325,36.98041 L 2.401716,35.267923 3.9389066,36.322399 C 16.337357,44.827442 50.593289,50.664931 78.51286,49.030406 c 20.6142,-1.206839 34.60837,-4.794803 44.85548,-11.500492 l 0.82375,-0.539059 -0.25078,3.471957 c -0.29115,4.030914 -0.71725,4.939904 -3.43169,7.320737 -6.81219,5.974977 -24.233405,10.813564 -44.600185,12.387303 -5.440509,0.420388 -19.828377,0.40227 -25.178501,-0.0317 z"
       id="path3352"
       inkscape:connector-curvature="0"
       transform="translate(246.62183,111.67735)" />
    <path
       style="fill:#ffffff"
       d="M 52.652954,60.30273 C 40.130871,59.283162 30.922601,57.597906 22.159566,54.721968 17.452484,53.177152 8.657651,48.853472 5.6140054,46.587906 L 3.3057064,44.869703 3.0679277,41.7813 C 2.9371494,40.082678 2.7337515,37.922278 2.6159325,36.98041 L 2.401716,35.267923 4.0513574,36.402906 c 4.238174,2.915941 12.5341156,6.01914 21.8762586,8.183085 29.247028,6.774564 66.639506,6.049961 86.652814,-1.679187 3.13049,-1.208994 8.45339,-3.825394 10.43792,-5.130613 l 1.17268,-0.771267 -0.25451,3.464923 c -0.13998,1.905708 -0.46654,3.880722 -0.72569,4.388921 -0.82876,1.625229 -4.39264,4.45721 -7.82159,6.215302 -8.98077,4.604627 -22.92495,7.81759 -39.479805,9.096782 -4.240102,0.327632 -19.770657,0.4157 -23.256481,0.131878 z"
       id="path3374"
       inkscape:connector-curvature="0"
       transform="translate(246.62183,111.67735)" />
    <path
       style="fill:#ffffff"
       d="M 55.27389,46.545844 C 31.889506,44.779817 12.054112,39.759252 4.325664,33.650265 2.3683468,32.103095 2.2596884,31.767135 2.8974458,29.234371 3.231191,27.908948 3.6146081,27.439678 5.4872118,26.064716 7.6325846,24.489473 7.6952791,24.397581 8.1045803,22.228368 l 0.4193456,-2.222448 2.2831161,2.092061 c 4.340801,3.977556 12.994372,7.525971 23.336223,9.569067 9.592298,1.895018 18.262933,2.657622 30.216538,2.657622 25.201073,0 45.072557,-4.498302 52.465767,-11.876658 l 1.96906,-1.965101 0.42197,1.9411 c 0.36286,1.669167 0.73633,2.261199 2.66589,4.226012 2.18706,2.227016 2.25115,2.34497 2.52926,4.655112 l 0.28535,2.3702 -2.12463,1.497764 c -7.81157,5.506794 -19.04486,8.98617 -35.148426,10.886799 -5.525605,0.652161 -25.876275,0.95976 -32.150154,0.485946 z"
       id="path3376"
       inkscape:connector-curvature="0"
       transform="translate(246.62183,111.67735)" />
    <path
       style="fill:#ffffff"
       d="M 54.919473,31.858871 C 43.546298,31.268556 33.269837,29.553993 24.499802,26.78354 l -2.804809,-0.886039 1.006159,-0.940924 c 0.553387,-0.517508 1.071424,-1.127545 1.151194,-1.355637 0.101185,-0.289327 1.1718,-0.05623 3.541063,0.770985 13.232774,4.620124 39.114203,6.12129 59.506448,3.451474 11.763752,-1.540147 20.722953,-4.507387 23.760193,-7.869251 1.02074,-1.129837 1.22607,-1.621604 1.22607,-2.936474 0,-1.358088 -0.19675,-1.792811 -1.40432,-3.102866 C 102.80037,5.5814336 63.31291,2.0224001 36.478564,7.2448417 23.600783,9.751087 17.005268,13.625136 18.246712,17.953799 c 0.183737,0.640654 0.334068,1.211806 0.334068,1.269228 0,0.05742 -0.682155,-0.295367 -1.5159,-0.783974 -0.833745,-0.488607 -1.907127,-0.888377 -2.385292,-0.888377 -0.965142,0 -2.250346,1.193288 -2.446292,2.271336 -0.105326,0.579474 -0.34993,0.406823 -1.43272,-1.011263 C 9.2424028,16.770071 9.1812435,15.973276 10.455877,14.319939 14.531854,9.0329557 28.52253,4.719102 47.760539,2.8175032 c 6.064637,-0.5994646 25.143328,-0.5986434 31.451237,0.00135 17.330492,1.6484457 30.628154,5.3525151 36.133704,10.0650584 2.89841,2.480934 2.97004,4.433376 0.27079,7.381434 -5.75114,6.281246 -21.14031,10.477308 -42.542157,11.599681 -7.446769,0.39053 -10.53209,0.389483 -18.15464,-0.0062 z"
       id="path3378"
       inkscape:connector-curvature="0"
       transform="translate(246.62183,111.67735)" />
    <path
       style="fill:#ffffff"
       d="M 51.954037,27.445705 C 46.493131,26.969991 40.12655,26.125727 36.484717,25.394339 32.582476,24.610653 25.569944,22.605693 25.569944,22.273685 c 0,-0.151589 5.374681,-9.690489 6.148168,-10.911674 0.547184,-0.863896 -1.666703,-2.0388394 21.796296,11.567631 l 8.200077,4.755322 -4.181307,-0.05875 c -2.29972,-0.03231 -4.810333,-0.113541 -5.579141,-0.180514 z"
       id="path3380"
       inkscape:connector-curvature="0"
       transform="translate(246.62183,111.67735)" />
    <path
       style="fill:#ffffff"
       d="m 22.164464,20.516099 c -4.986775,-3.358291 -3.081137,-6.5536 5.812646,-9.746447 1.420043,-0.509791 2.646972,-0.8618179 2.72651,-0.7822808 0.166208,0.1662088 -6.264314,11.7176658 -6.536174,11.7412438 -0.09867,0.0086 -1.000008,-0.537075 -2.002982,-1.212516 z"
       id="path3382"
       inkscape:connector-curvature="0"
       transform="translate(246.62183,111.67735)" />
    <path
       style="fill:#ffffff"
       d="M 55.211694,46.52755 C 32.699632,45.002405 11.012059,39.454584 3.957921,33.416504 2.4033071,32.085812 2.2905481,31.64458 2.8933313,29.250711 c 0.3198075,-1.270071 0.732521,-1.797485 2.3588428,-3.014406 2.4232079,-1.813204 2.3943427,-1.770947 2.882655,-4.22 l 0.3986461,-1.999347 2.0217498,1.824618 c 7.237651,6.531942 21.496124,10.685168 41.74827,12.160489 7.032675,0.512313 23.735662,0.225945 30.402863,-0.52125 17.420312,-1.952299 30.161892,-6.242411 34.867612,-11.739988 l 1.19083,-1.391211 0.44722,1.998407 c 0.38353,1.713814 0.76411,2.326644 2.67239,4.303282 2.10817,2.183683 2.24161,2.423046 2.53784,4.552297 0.17196,1.236082 0.24702,2.358893 0.16678,2.495136 -0.0802,0.136243 -1.48098,1.136056 -3.11277,2.221807 -8.52432,5.671885 -22.325545,9.354995 -39.818276,10.626234 -5.563238,0.404294 -20.353578,0.39354 -26.44629,-0.01923 z"
       id="path3384"
       inkscape:connector-curvature="0"
       transform="translate(246.62183,111.67735)" />
    <path
       style="fill:#f2f2f2"
       d="M 50.381475,60.173829 C 38.153203,59.038869 27.28335,56.773532 19.121231,53.659022 14.898648,52.047765 8.434002,48.662728 5.6152725,46.586992 L 3.3082403,44.888076 3.0741562,42.139944 C 2.9454099,40.628472 2.7448761,38.490678 2.6285254,37.38929 l -0.2115467,-2.002524 2.8734674,1.727005 c 4.7912219,2.879609 13.4700379,5.940171 22.2015179,7.82931 28.201601,6.101685 62.135648,5.615319 82.646866,-1.18455 3.38656,-1.122714 9.78216,-4.072095 12.53818,-5.782091 l 1.53026,-0.949456 -0.25764,3.453893 c -0.1417,1.899641 -0.47192,3.869692 -0.73381,4.377891 -0.84039,1.630775 -4.40308,4.460005 -7.82658,6.215302 -7.75221,3.974716 -18.972644,6.853479 -33.556527,8.609406 -5.487539,0.66071 -26.145641,0.982788 -31.451238,0.490353 z"
       id="path3386"
       inkscape:connector-curvature="0"
       transform="translate(246.62183,111.67735)" />
    <path
       style="fill:#f2f2f2"
       d="M 48.284726,60.013353 C 33.716833,58.49918 22.262197,55.558325 12.971586,50.94708 9.3803354,49.164621 4.4528854,46.074279 3.6676318,45.111931 3.3046968,44.667146 2.2838903,35.827829 2.563203,35.548516 c 0.069423,-0.06942 1.2202782,0.563144 2.5574556,1.405706 4.9508514,3.119553 14.6422794,6.385538 25.3381894,8.538902 21.274748,4.283158 47.668294,4.825042 66.890959,1.373334 9.908473,-1.779211 18.788823,-4.857187 24.436023,-8.469656 1.09749,-0.702057 2.09456,-1.276467 2.21571,-1.276467 0.3347,0 -0.16772,6.069265 -0.59693,7.210962 -0.20704,0.550718 -1.03563,1.680288 -1.84133,2.510155 -5.66675,5.836776 -20.31195,10.603225 -39.381109,12.817034 -6.774219,0.786445 -27.643275,1.004919 -33.897445,0.354867 z"
       id="path3407"
       inkscape:connector-curvature="0"
       transform="translate(246.62183,111.67735)" />
    <path
       style="fill:#ffffff"
       d="M 57.021181,46.663526 C 33.962059,45.315611 10.832797,39.503075 3.8419421,33.299233 L 2.3425139,31.968607 2.7683283,29.91415 C 3.0508608,28.550995 3.46048,27.647362 3.9856618,27.228672 7.6739094,24.2883 7.699344,24.256765 8.1241286,22.097627 l 0.4104562,-2.086308 1.7906092,1.618712 c 6.233941,5.635491 16.852944,9.351535 32.717659,11.449311 18.687501,2.47103 43.314596,1.205896 58.184787,-2.989047 7.82428,-2.207262 13.96304,-5.402944 16.53326,-8.606796 l 1.03111,-1.285303 0.46207,2.064787 c 0.39676,1.772886 0.77296,2.394335 2.6611,4.395862 2.06571,2.189757 2.21783,2.466295 2.50938,4.561626 0.1707,1.226804 0.24471,2.342024 0.16447,2.478267 -0.35847,0.608665 -6.22632,4.241355 -8.6888,5.379091 -8.19262,3.785221 -20.47736,6.464381 -34.242246,7.467838 -4.43019,0.322959 -19.864944,0.396797 -24.636803,0.117859 z"
       id="path3409"
       inkscape:connector-curvature="0"
       transform="translate(246.62183,111.67735)" />
    <path
       style="fill:#ffffff"
       d="M 51.779308,60.328753 C 51.106601,60.253175 48.826386,60.01927 46.712164,59.808964 33.824128,58.526967 21.970903,55.413746 12.971586,50.94708 9.3667468,49.157877 4.4384908,46.064798 3.6743413,45.111931 3.3348768,44.688631 2.5022129,38.29063 2.5047437,36.125008 l 9.589e-4,-0.820598 1.1357392,0.759977 c 2.1866518,1.463192 8.8574972,4.496737 12.6028622,5.73111 10.103503,3.329846 23.854144,5.796633 38.155941,6.844959 6.282566,0.460514 22.521836,0.464745 28.34273,0.0074 16.790358,-1.319253 29.928285,-4.738299 38.701595,-10.071797 1.31701,-0.800639 2.48033,-1.455708 2.58515,-1.455708 0.38016,0 -0.2939,6.736051 -0.76527,7.647586 -0.26625,0.514878 -1.24507,1.647941 -2.17515,2.51792 -6.10812,5.713431 -20.14204,10.186342 -38.907129,12.400532 -4.445035,0.524494 -27.177063,1.004797 -30.402863,0.64238 z"
       id="path3411"
       inkscape:connector-curvature="0"
       transform="translate(246.62183,111.67735)" />
    <path
       style="fill:#ffffff"
       d="M 54.400245,46.517288 C 32.642261,44.879408 12.285242,39.75142 4.7436051,34.008646 2.4372011,32.252376 2.3006292,31.948392 2.8051422,29.693991 3.191942,27.965587 3.4358845,27.625055 5.4346211,26.023368 7.5090522,24.361023 7.664162,24.133418 8.0899576,22.126978 l 0.4522111,-2.130917 1.5241853,1.404945 c 3.608858,3.32653 8.926604,6.044603 16.05547,8.206476 21.883192,6.636212 59.165203,6.208344 79.349136,-0.910652 5.55503,-1.959295 10.74378,-5.03804 12.39206,-7.352824 l 0.78065,-1.096336 0.75865,2.341383 c 0.61286,1.891428 1.14512,2.73192 2.76965,4.373588 1.8939,1.913867 2.02761,2.161948 2.29625,4.260294 0.3367,2.629959 0.28253,2.702673 -4.00351,5.374048 -8.44199,5.26166 -21.721121,8.682596 -38.631997,9.952277 -5.460658,0.409991 -21.814533,0.390931 -27.432468,-0.03197 z"
       id="path3413"
       inkscape:connector-curvature="0"
       transform="translate(246.62183,111.67735)" />
    <path
       style="fill:#ffffff"
       d="M 57.021181,31.995588 C 44.918277,31.475204 32.923727,29.550753 24.429608,26.766473 l -2.712898,-0.889258 0.9953,-0.930781 c 0.547415,-0.51193 1.060566,-1.111013 1.140336,-1.331298 0.09846,-0.271905 1.267187,-0.02518 3.639618,0.768341 9.371538,3.134561 21.892759,4.69932 37.604032,4.69932 9.259521,0 15.217654,-0.376621 22.852026,-1.444505 11.921343,-1.667538 20.400438,-4.64183 23.018628,-8.074464 C 117.49113,11.009806 90.817933,3.7188163 57.710099,5.0064029 38.514126,5.7529477 24.021309,9.1569166 19.595342,13.958524 c -1.385045,1.502596 -1.438233,1.64414 -1.289911,3.43271 l 0.154701,1.865491 -1.455576,-0.853024 c -0.800567,-0.469164 -1.774379,-0.853025 -2.164027,-0.853025 -0.984391,0 -2.480841,1.254352 -2.613969,2.191077 -0.09755,0.686362 -0.267068,0.57533 -1.421225,-0.930861 -0.720758,-0.940599 -1.3104685,-2.022831 -1.3104685,-2.40496 0,-1.731916 2.9046085,-4.484725 6.8144345,-6.458303 5.959869,-3.008385 18.238684,-5.8103987 31.276509,-7.1372696 5.787325,-0.5889812 26.014887,-0.582838 31.975425,0.00971 19.99366,1.9876094 34.935645,6.8585061 37.753205,12.3070615 1.32209,2.556637 -1.93402,6.578303 -7.68277,9.489112 -10.072194,5.099931 -32.49066,8.244428 -52.610489,7.379344 z"
       id="path3415"
       inkscape:connector-curvature="0"
       transform="translate(246.62183,111.67735)" />
    <path
       style="fill:#ffffff"
       d="M 51.779308,27.444853 C 47.530014,27.125984 40.327591,26.158477 36.484717,25.390318 32.498333,24.593473 25.569944,22.60488 25.569944,22.25755 c 0,-0.274939 6.337442,-11.334567 6.579045,-11.481255 0.129464,-0.0786 1.650695,0.685412 3.380513,1.697812 1.729818,1.0124 8.333143,4.849007 14.674055,8.525792 l 11.528932,6.685065 -4.19031,-0.06105 c -2.30467,-0.03358 -4.897962,-0.114155 -5.762871,-0.179058 z"
       id="path3417"
       inkscape:connector-curvature="0"
       transform="translate(246.62183,111.67735)" />
    <path
       style="fill:#ffffff"
       d="m 22.267867,20.634958 c -4.109922,-2.722299 -3.702007,-5.332919 1.245299,-7.969805 2.081159,-1.109247 6.954013,-2.9142222 7.200913,-2.6673224 0.170223,0.1702234 -6.297828,11.7273264 -6.56942,11.7382284 -0.1112,0.0045 -0.955756,-0.491032 -1.876792,-1.101101 z"
       id="path3419"
       inkscape:connector-curvature="0"
       transform="translate(246.62183,111.67735)" />
  </g>
</svg>
